HIERARCHY
ROOT Hips
{
	OFFSET 0.000000 0.000000 0.000000
	CHANNELS 6 Xposition Yposition Zposition Xrotation Yrotation Zrotation
	JOINT LeftUpLeg_virtual
	{
		OFFSET 0.000000 0.000000 0.000000
		CHANNELS 3 Xrotation Yrotation Zrotation
		JOINT LeftUpLeg
		{
			OFFSET 15.427100 -6.655098 0.678600
			CHANNELS 3 Xrotation Yrotation Zrotation
			JOINT LeftLeg
			{
				OFFSET 4.081073 -39.591068 13.024000
				CHANNELS 3 Xrotation Yrotation Zrotation
				JOINT LeftFoot
				{
					OFFSET -4.081074 -37.707932 -15.979700
					CHANNELS 3 Xrotation Yrotation Zrotation
					JOINT LeftToeBase
					{
						OFFSET 5.346399 -15.068900 20.645000
						CHANNELS 3 Xrotation Yrotation Zrotation
						JOINT LeftToe_End
						{
							OFFSET 2.754700 0.931300 11.300900
							CHANNELS 3 Xrotation Yrotation Zrotation
							End Site
							{
								OFFSET 0 0 0
							}
						}
					}
				}
			}
		}
	}
	JOINT RightUpLeg_virtual
	{
		OFFSET 0.000000 0.000000 0.000000
		CHANNELS 3 Xrotation Yrotation Zrotation
		JOINT RightUpLeg
		{
			OFFSET -15.569500 -6.655098 0.678600
			CHANNELS 3 Xrotation Yrotation Zrotation
			JOINT RightLeg
			{
				OFFSET -4.081825 -39.591045 13.023800
				CHANNELS 3 Xrotation Yrotation Zrotation
				JOINT RightFoot
				{
					OFFSET 4.081824 -37.707954 -15.979600
					CHANNELS 3 Xrotation Yrotation Zrotation
					JOINT RightToeBase
					{
						OFFSET -5.346400 -15.068900 20.645000
						CHANNELS 3 Xrotation Yrotation Zrotation
						JOINT RightToe_End
						{
							OFFSET -2.754700 0.931300 11.300900
							CHANNELS 3 Xrotation Yrotation Zrotation
							End Site
							{
								OFFSET 0 0 0
							}
						}
					}
				}
			}
		}
	}
	JOINT Spine_virtual
	{
		OFFSET 0.000000 0.000000 0.000000
		CHANNELS 3 Xrotation Yrotation Zrotation
		JOINT Spine
		{
			OFFSET -0.279200 12.230698 -2.892100
			CHANNELS 3 Xrotation Yrotation Zrotation
			JOINT Spine1
			{
				OFFSET -0.232667 10.192268 -1.242267
				CHANNELS 3 Xrotation Yrotation Zrotation
				JOINT Spine1_split
				{
					OFFSET -0.232667 10.192268 -1.242267
					CHANNELS 3 Xrotation Yrotation Zrotation
					JOINT Spine2
					{
						OFFSET -0.232667 10.192268 -1.242267
						CHANNELS 3 Xrotation Yrotation Zrotation
						JOINT Neck_virtual
						{
							OFFSET 0.000000 0.000000 0.000000
							CHANNELS 3 Xrotation Yrotation Zrotation
							JOINT Neck
							{
								OFFSET -0.418800 17.814194 8.416900
								CHANNELS 3 Xrotation Yrotation Zrotation
								JOINT Head
								{
									OFFSET 0.000000 7.031097 3.806800
									CHANNELS 3 Xrotation Yrotation Zrotation
									JOINT HeadTop_End
									{
										OFFSET 0.000000 24.646606 12.978600
										CHANNELS 3 Xrotation Yrotation Zrotation
										End Site
										{
											OFFSET 0 0 0
										}
									}
								}
							}
						}
						JOINT LeftShoulder_virtual
						{
							OFFSET 0.000000 0.000000 0.000000
							CHANNELS 3 Xrotation Yrotation Zrotation
							JOINT LeftShoulder
							{
								OFFSET 8.476499 7.247704 -3.868750
								CHANNELS 3 Xrotation Yrotation Zrotation
								JOINT LeftShoulder_split
								{
									OFFSET 8.476499 7.247704 -3.868750
									CHANNELS 3 Xrotation Yrotation Zrotation
									JOINT LeftArm
									{
										OFFSET 9.308998 -2.777710 0.208600
										CHANNELS 3 Xrotation Yrotation Zrotation
										JOINT LeftForeArm
										{
											OFFSET 29.972298 0.000000 0.000000
											CHANNELS 3 Xrotation Yrotation Zrotation
											JOINT LeftHand
											{
												OFFSET 26.026505 0.000000 0.000000
												CHANNELS 3 Xrotation Yrotation Zrotation
												End Site
												{
													OFFSET 0 0 0
												}
											}
										}
									}
								}
							}
						}
						JOINT RightShoulder_virtual
						{
							OFFSET 0.000000 0.000000 0.000000
							CHANNELS 3 Xrotation Yrotation Zrotation
							JOINT RightShoulder
							{
								OFFSET -7.570500 7.247704 -3.868750
								CHANNELS 3 Xrotation Yrotation Zrotation
								JOINT RightShoulder_split
								{
									OFFSET -7.570500 7.247704 -3.868750
									CHANNELS 3 Xrotation Yrotation Zrotation
									JOINT RightArm
									{
										OFFSET -9.308998 -2.777710 0.208500
										CHANNELS 3 Xrotation Yrotation Zrotation
										JOINT RightForeArm
										{
											OFFSET -29.972300 0.000000 0.000000
											CHANNELS 3 Xrotation Yrotation Zrotation
											JOINT RightHand
											{
												OFFSET -26.026505 0.000000 0.000000
												CHANNELS 3 Xrotation Yrotation Zrotation
												End Site
												{
													OFFSET 0 0 0
												}
											}
										}
									}
								}
							}
						}
					}
				}
			}
		}
	}
}
MOTION
Frames: 5
Frame Time: 0.03333333
-0.421392 88.798134 0.020079 0.000000 0.000000 0.000000 -33.753624 -84.929236 -33.734984 -17.998124 14.322784 12.328914 30.883489 -0.138430 3.259745 -8.333311 2.063482 -9.804628 -4.455525 -0.051674 0.326688 0.000000 0.000000 0.000000 -26.687873 -84.562024 -27.111717 -12.779414 -21.608053 -12.572318 27.660267 6.845742 -9.701651 -9.001769 -1.486320 11.168257 -0.345691 0.224542 0.906624 0.000000 0.000000 0.000000 -35.613064 -83.986205 -36.419030 3.337833 0.563359 0.755715 3.607146 -0.180969 2.032521 0.496428 3.200272 -0.120635 0.000000 0.000000 0.000000 3.295279 -0.015475 1.598786 -6.132606 7.555102 -3.713528 2.978341 33.921875 -1.704362 0.000000 0.000000 0.000000 4.675337 0.267614 1.776745 0.768756 6.202586 0.052112 1.160649 0.832526 -0.456742 10.866566 -79.183114 -52.421927 -0.851546 -20.835581 0.767420 0.000000 0.000000 0.000000 5.432609 0.636650 1.332312 2.171125 1.555246 6.685845 3.003413 3.947659 0.084902 8.635508 26.101539 62.400472 1.346619 31.663152 0.149268 0.000000 0.000000 0.000000 
-0.387094 88.790680 0.031046 0.000000 0.000000 0.000000 -35.462670 -84.992456 -35.397008 -17.808593 14.322027 12.467809 31.129014 -0.289907 3.319781 -8.377295 2.123592 -9.333210 -4.106615 -0.020472 0.182270 0.000000 0.000000 0.000000 -27.897795 -84.556369 -28.293966 -12.859160 -21.576805 -12.510032 27.809559 6.783155 -9.811855 -8.773824 -1.634112 11.242067 -0.391761 0.194004 0.944940 0.000000 0.000000 0.000000 -36.532028 -83.966193 -37.427948 3.424314 0.511321 0.871801 3.596722 -0.192958 2.044620 0.537243 2.398657 0.017950 0.000000 0.000000 0.000000 3.271715 0.006989 1.611077 -6.239558 7.545449 -3.756136 2.929991 33.973825 -1.886092 0.000000 0.000000 0.000000 4.684690 0.255267 1.807063 0.741436 6.019047 -0.004263 1.197308 0.794131 -0.385986 11.518512 -79.344914 -51.987148 -1.199764 -21.360093 0.385153 0.000000 0.000000 0.000000 5.524454 0.671707 1.406779 2.230126 1.445921 6.732932 2.993261 3.718702 0.023360 9.274682 26.088060 61.974876 1.380414 31.917556 0.029532 0.000000 0.000000 0.000000 
-0.266212 88.772453 -0.033800 0.000000 0.000000 0.000000 -36.877209 -84.982764 -36.835033 -17.800892 14.359059 12.660574 31.450528 -0.607195 3.494993 -8.553347 1.998463 -9.077449 -3.830550 0.017115 0.060569 0.000000 0.000000 0.000000 -29.659615 -84.434293 -30.046562 -12.786732 -21.596619 -12.317440 28.019924 6.779735 -10.010893 -8.659047 -1.807751 11.540404 -0.412676 0.146859 0.888235 0.000000 0.000000 0.000000 -37.206831 -83.869976 -38.190497 3.570128 0.349602 1.111288 3.610612 -0.244371 2.035435 0.513870 1.747318 0.128825 0.000000 0.000000 0.000000 3.348931 -0.022686 1.660655 -6.326785 7.636114 -3.903226 2.982801 34.295592 -2.297918 0.000000 0.000000 0.000000 4.834018 0.195117 1.845921 0.763454 5.894876 -0.018445 1.194024 1.097986 -0.632050 14.959465 -79.625703 -48.955251 -1.304063 -22.271690 0.125155 0.000000 0.000000 0.000000 5.623577 0.635154 1.484744 2.316420 1.359429 6.669623 2.866878 3.820516 0.111961 10.071061 25.999457 61.559587 1.329032 32.952374 0.028795 0.000000 0.000000 0.000000 
-0.107201 88.719208 -0.129496 0.000000 0.000000 0.000000 -37.604033 -84.918506 -37.624247 -17.950132 14.544242 12.844955 31.796655 -1.032923 3.759701 -8.846792 1.709676 -9.090303 -3.971790 0.024245 0.112316 0.000000 0.000000 0.000000 -31.636559 -84.310216 -32.004880 -12.677025 -21.581000 -12.081266 28.305381 6.848180 -10.258063 -8.686173 -1.918080 12.005821 -0.347662 0.098935 0.753296 0.000000 0.000000 0.000000 -37.591999 -83.759607 -38.600216 3.723103 0.131907 1.373310 3.633396 -0.293542 2.016611 0.613478 1.265103 0.143287 0.000000 0.000000 0.000000 3.493350 -0.071604 1.738615 -6.330360 7.782593 -4.124687 3.114008 34.748434 -2.845622 0.000000 0.000000 0.000000 5.057301 0.129354 1.902637 0.809507 5.862187 0.047900 1.087486 1.542693 -0.981054 20.566569 -80.020543 -43.767545 -1.159563 -23.016716 0.020248 0.000000 0.000000 0.000000 5.715039 0.566457 1.552478 2.399774 1.356310 6.551870 2.768662 4.175540 0.219815 10.797474 25.879308 61.239305 1.184842 34.403533 0.153053 0.000000 0.000000 0.000000 
0.022085 88.658134 -0.212019 0.000000 0.000000 0.000000 -38.168613 -84.977532 -38.220055 -18.045141 14.882689 12.919062 32.034420 -1.446676 4.138154 -9.263342 1.403712 -9.190247 -4.540681 -0.004511 0.372917 0.000000 0.000000 0.000000 -33.219161 -84.310940 -33.527524 -12.550528 -21.472901 -11.847138 28.528992 6.959554 -10.576724 -8.925621 -1.976301 12.403449 -0.188903 0.068374 0.578166 0.000000 0.000000 0.000000 -38.498624 -83.778677 -39.436047 3.846478 -0.049492 1.528852 3.658593 -0.280556 2.004102 0.859161 1.012851 0.137531 0.000000 0.000000 0.000000 3.671787 -0.078397 1.823474 -6.230309 7.961175 -4.341629 3.241435 35.247738 -3.434115 0.000000 0.000000 0.000000 5.268028 0.122191 1.969121 0.850925 5.903620 0.173666 0.837554 1.811209 -1.411901 26.789701 -80.457907 -37.726454 -0.813634 -23.421477 0.070122 0.000000 0.000000 0.000000 5.775447 0.524132 1.603669 2.457099 1.432652 6.505725 2.685479 4.643683 0.233141 11.243013 25.738519 61.078666 0.970529 35.875712 0.375049 0.000000 0.000000 0.000000 
